<svg
  width="429"
  height="84.79015358116837"
  viewBox="0 0 409.8235294117647 81"
  xmlns="http://www.w3.org/2000/svg"
  >
  <g transform="matrix(1,0,0,1,0,0)" fill="#f6f6f6">
    <rect width="81" height="81" rx="10" ry="10"></rect>
  </g>
  <g transform="matrix(0.6257438177513492,0,0,0.6257438177513492,9.049412772166086,9.013420042384121)" fill="#111111">
    <path  d="M74.2,17.6a8.2,8.2,0,0,0-7.9,6.2H57.9a8.2,8.2,0,1,0,0,4h8.4a8.2,8.2,0,1,0,7.9-10.2ZM50,29.9a4.2,4.2,0,1,1,4.2-4.2A4.2,4.2,0,0,1,50,29.9Zm24.2,0a4.2,4.2,0,1,1,4.2-4.2A4.2,4.2,0,0,1,74.2,29.9Z"></path>
    <path  d="M25.8,66.1a8.2,8.2,0,1,0,8.2,8.2A8.2,8.2,0,0,0,25.8,66.1Zm0,12.3a4.2,4.2,0,1,1,4.2-4.2A4.2,4.2,0,0,1,25.8,78.4Z"></path>
    <path  d="M74.2,41.4a8.1,8.1,0,0,0-5.5,14.2L55.8,68.6A8.2,8.2,0,0,0,52,66.3V57.5a8.2,8.2,0,1,0-4,0v8.8a8.2,8.2,0,1,0,9.9,5.8L72.5,57.6l1.7.2a8.2,8.2,0,1,0,0-16.3ZM45.8,49.6A4.2,4.2,0,1,1,50,53.8,4.2,4.2,0,0,1,45.8,49.6ZM50,78.4a4.2,4.2,0,1,1,4.2-4.2A4.2,4.2,0,0,1,50,78.4ZM74.2,53.8a4.2,4.2,0,1,1,4.2-4.2A4.2,4.2,0,0,1,74.2,53.8Z"></path>
    <path  d="M74.2,66.1a8.2,8.2,0,1,0,8.2,8.2A8.2,8.2,0,0,0,74.2,66.1Zm0,12.3a4.2,4.2,0,1,1,4.2-4.2A4.2,4.2,0,0,1,74.2,78.4Z"></path>
    <path  d="M33.9,25.8a8.2,8.2,0,1,0-9.8,8v8.6a8.2,8.2,0,1,0,4,.2V33.6A8.2,8.2,0,0,0,33.9,25.8Zm-12.3,0a4.2,4.2,0,1,1,4.2,4.2A4.2,4.2,0,0,1,21.6,25.8Zm8.3,24.6a4.2,4.2,0,1,1-4.2-4.2A4.2,4.2,0,0,1,29.9,50.4Z"></path>
  </g>
  <g transform="matrix(2.152980737641822,0,0,2.152980737641822,99.06231687414281,6.512713364271377)" fill="#f6f6f6">
    <path d="M5.86 10.3 c1.5067 0 2.72 0.5 3.64 1.5 l-1.36 1.24 c-0.65334 -0.70666 -1.44 -1.06 -2.36 -1.06 c-0.88 0 -1.5933 0.31334 -2.14 0.94 s-0.82 1.4333 -0.82 2.42 c0 0.93334 0.28666 1.7 0.86 2.3 s1.3067 0.90666 2.2 0.92 c0.94666 0 1.7133 -0.35334 2.3 -1.06 l1.28 1.28 c-0.85334 0.97334 -2.0534 1.46 -3.6 1.46 c-1.4533 0 -2.6366 -0.45334 -3.55 -1.36 s-1.3833 -2.1 -1.41 -3.58 c0.01334 -1.5067 0.48334 -2.7134 1.41 -3.62 s2.11 -1.3667 3.55 -1.38 z M15.580000000000002 10.28 c1.4 0 2.5866 0.48338 3.56 1.45 s1.4667 2.1434 1.48 3.53 c0 1.4 -0.48666 2.5734 -1.46 3.52 s-2.1666 1.4333 -3.58 1.46 c-1.3867 0 -2.5666 -0.48 -3.54 -1.44 s-1.4733 -2.14 -1.5 -3.54 c0 -1.3733 0.48334 -2.54 1.45 -3.5 s2.1634 -1.4533 3.59 -1.48 z M12.46 15.26 c0 0.97334 0.28664 1.7633 0.85998 2.37 s1.3267 0.91666 2.26 0.93 c0.94666 0 1.7 -0.30334 2.26 -0.91 s0.84666 -1.4033 0.86 -2.39 c0 -0.97334 -0.28 -1.7633 -0.84 -2.37 s-1.3267 -0.91666 -2.3 -0.93 c-0.94666 0 -1.7 0.31334 -2.26 0.94 s-0.84 1.4133 -0.84 2.36 z M27.840000000000003 10.28 c1.0667 0 1.9033 0.32 2.51 0.96 s0.91666 1.5 0.93 2.58 l0 6.18 l-1.8 0 l0 -5.66 c0 -0.73334 -0.19 -1.3133 -0.57 -1.74 s-0.91 -0.64 -1.59 -0.64 c-0.84 0 -1.49 0.28 -1.95 0.84 s-0.69 1.3067 -0.69 2.24 l0 4.96 l-1.8 0 l0 -9.48 l1.8 0 l0 1.46 l0.04 0 c0.25334 -0.53334 0.66334 -0.95 1.23 -1.25 s1.1967 -0.45 1.89 -0.45 z M36.5 7.859999999999999 l-0.000019531 2.66 l2.58 0 l0 1.56 l-2.58 0 l0 4.56 c0 0.61334 0.08666 1.0867 0.26 1.42 s0.54 0.5 1.1 0.5 c0.53334 0 0.96 -0.09334 1.28 -0.28 l0 1.64 c-0.34666 0.18666 -0.89332 0.29332 -1.64 0.31998 c-0.72 0 -1.2767 -0.11 -1.67 -0.33 s-0.68 -0.52666 -0.86 -0.92 s-0.27 -1.01 -0.27 -1.85 l0 -5.06 l-2.08 0 l0 -1.56 l2.08 0 l0 -2.66 l1.8 0 z M45.74 10.28 c1.4533 0 2.5834 0.45664 3.39 1.37 s1.2167 2.17 1.23 3.77 l0 0.5 l-7.6 0 c0 0.77334 0.31 1.4233 0.93 1.95 s1.3767 0.79666 2.27 0.81 c0.98666 0 1.8533 -0.47334 2.6 -1.42 l1.36 1.04 c-1.0133 1.2933 -2.4134 1.94 -4.2 1.94 c-1.4533 0 -2.6234 -0.46334 -3.51 -1.39 s-1.3433 -2.1234 -1.37 -3.59 c0 -1.4133 0.45666 -2.59 1.37 -3.53 s2.09 -1.4233 3.53 -1.45 z M48.44 14.48 c-0.02666 -0.89334 -0.28 -1.5767 -0.76 -2.05 s-1.14 -0.71 -1.98 -0.71 c-0.56 0 -1.0633 0.13666 -1.51 0.41 s-0.79666 0.62668 -1.05 1.06 s-0.38 0.86334 -0.38 1.29 l5.68 0 z M57.279999999999994 10.28 c1.3733 0 2.36 0.58666 2.96 1.76 c0.30666 -0.56 0.72666 -0.99334 1.26 -1.3 s1.1133 -0.46 1.74 -0.46 c2.3866 0 3.5866 1.3733 3.6 4.12 l0 5.6 l-1.8 0 l0 -5.38 c0 -0.93334 -0.16666 -1.61 -0.5 -2.03 s-0.84668 -0.63 -1.54 -0.63 c-0.81334 0 -1.42 0.24666 -1.82 0.74 s-0.6 1.1733 -0.6 2.04 l0 5.26 l-1.8 0 l0 -5.1 c0 -1.12 -0.16 -1.89 -0.48 -2.31 s-0.82666 -0.63 -1.52 -0.63 c-0.74666 0 -1.3433 0.28666 -1.79 0.86 s-0.67 1.3 -0.67 2.18 l0 5 l-1.8 0 l0 -9.48 l1.68 0 l0 1.48 l0.04 0 c0.2 -0.46666 0.59666 -0.87 1.19 -1.21 s1.21 -0.51 1.85 -0.51 z M74.71999999999998 10.28 c1.4 0 2.5434 0.45998 3.43 1.38 s1.3433 2.12 1.37 3.6 c0 1.48 -0.45334 2.6766 -1.36 3.59 s-2.06 1.3767 -3.46 1.39 c-0.69334 0 -1.34 -0.14666 -1.94 -0.44 s-1.0533 -0.68 -1.36 -1.16 l-0.04 0 l0 7 l-1.8 0 l0 -15.12 l1.8 0 l0 1.36 l0.04 0 c0.36 -0.50666 0.83334 -0.9 1.42 -1.18 s1.22 -0.42 1.9 -0.42 z M71.35999999999999 15.26 c0 0.98666 0.28998 1.7833 0.86998 2.39 s1.33 0.91 2.25 0.91 c0.96 0 1.7167 -0.30334 2.27 -0.91 s0.83668 -1.4033 0.85002 -2.39 c0 -0.98666 -0.28334 -1.78 -0.85 -2.38 s-1.33 -0.90666 -2.29 -0.92 c-0.94666 0 -1.7 0.31 -2.26 0.93 s-0.84 1.41 -0.84 2.37 z M86.35999999999999 10.28 c1.4 0 2.5866 0.48338 3.56 1.45 s1.4667 2.1434 1.48 3.53 c0 1.4 -0.48666 2.5734 -1.46 3.52 s-2.1666 1.4333 -3.58 1.46 c-1.3867 0 -2.5666 -0.48 -3.54 -1.44 s-1.4733 -2.14 -1.5 -3.54 c0 -1.3733 0.48334 -2.54 1.45 -3.5 s2.1634 -1.4533 3.59 -1.48 z M83.23999999999998 15.26 c0 0.97334 0.28664 1.7633 0.85998 2.37 s1.3267 0.91666 2.26 0.93 c0.94666 0 1.7 -0.30334 2.26 -0.91 s0.84666 -1.4033 0.86 -2.39 c0 -0.97334 -0.28 -1.7633 -0.84 -2.37 s-1.3267 -0.91666 -2.3 -0.93 c-0.94666 0 -1.7 0.31334 -2.26 0.94 s-0.84 1.4133 -0.84 2.36 z M98.33999999999999 10.28 c0.33334 0 0.6 0.04 0.8 0.12 l-0.08 1.94 c-0.34666 -0.09334 -0.64666 -0.14 -0.9 -0.14 c-1.7733 0 -2.6734 0.98666 -2.7 2.96 l0 4.84 l-1.8 0 l0 -9.48 l1.8 0 l0 1.46 l0.04 0 c0.24 -0.50666 0.62666 -0.91666 1.16 -1.23 s1.0933 -0.47 1.68 -0.47 z M104.85999999999999 10.28 c1.2 0 2.15 0.27328 2.85 0.81994 s1.07 1.3067 1.11 2.28 l0 5.08 c0 0.48 0.02666 0.99334 0.08 1.54 l-1.6 0 c-0.04 -0.42666 -0.06 -0.90666 -0.06 -1.44 l-0.04 0 c-0.41334 0.61334 -0.89 1.0467 -1.43 1.3 s-1.17 0.38 -1.89 0.38 c-0.97334 0 -1.7633 -0.26 -2.37 -0.78 s-0.91 -1.2067 -0.91 -2.06 c0 -1.08 0.45334 -1.8967 1.36 -2.45 s2.1866 -0.83 3.84 -0.83 l1.34 0 l0 -0.34 c0 -0.64 -0.21 -1.1433 -0.63 -1.51 s-0.97 -0.55 -1.65 -0.55 c-0.50666 0 -0.95 0.07666 -1.33 0.23 s-0.83 0.43668 -1.35 0.85002 l-1.08 -1.12 c1.0267 -0.90666 2.28 -1.3733 3.76 -1.4 z M102.39999999999999 17.259999999999998 c0 1.0267 0.68002 1.54 2.04 1.54 c0.81334 0 1.4633 -0.24334 1.95 -0.73 s0.73666 -1.19 0.75 -2.11 l0 -0.52 l-1.02 0 c-1.1733 0 -2.0866 0.15 -2.74 0.45 s-0.98 0.75666 -0.98 1.37 z M116.11999999999999 10.28 c0.33334 0 0.6 0.04 0.8 0.12 l-0.08 1.94 c-0.34666 -0.09334 -0.64666 -0.14 -0.9 -0.14 c-1.7733 0 -2.6734 0.98666 -2.7 2.96 l0 4.84 l-1.8 0 l0 -9.48 l1.8 0 l0 1.46 l0.04 0 c0.24 -0.50666 0.62666 -0.91666 1.16 -1.23 s1.0933 -0.47 1.68 -0.47 z M119.77999999999999 10.52 l2.82 7.4 l0.04 0 l2.68 -7.4 l1.94 0 l-4.48 11.48 c-0.41334 1.1067 -0.86668 1.85 -1.36 2.23 s-1.1267 0.57 -1.9 0.57 c-0.65334 0 -1.1867 -0.08666 -1.6 -0.26 l0.22 -1.62 c0.37334 0.13334 0.73334 0.2 1.08 0.2 c0.56 0 0.96334 -0.13666 1.21 -0.41 s0.46332 -0.66334 0.64998 -1.17 l0.56 -1.48 l-3.94 -9.54 l2.08 0 z M135.44 5.800000000000001 c0.36 0 0.67002 0.13002 0.93002 0.39002 s0.39 0.57 0.39 0.93 c0 0.37334 -0.13334 0.68668 -0.4 0.94002 s-0.57332 0.38 -0.91998 0.38 c-0.37334 0 -0.68668 -0.12666 -0.94002 -0.38 s-0.38 -0.56668 -0.38 -0.94002 s0.13334 -0.68668 0.4 -0.94002 s0.57332 -0.38 0.91998 -0.38 z M136.34 10.52 l0 9.48 l-1.8 0 l0 -9.48 l1.8 0 z M141.70000000000002 7.859999999999999 l-0.000019531 2.66 l2.58 0 l0 1.56 l-2.58 0 l0 4.56 c0 0.61334 0.08666 1.0867 0.26 1.42 s0.54 0.5 1.1 0.5 c0.53334 0 0.96 -0.09334 1.28 -0.28 l0 1.64 c-0.34666 0.18666 -0.89332 0.29332 -1.64 0.31998 c-0.72 0 -1.2767 -0.11 -1.67 -0.33 s-0.68 -0.52666 -0.86 -0.92 s-0.27 -1.01 -0.27 -1.85 l0 -5.06 l-2.08 0 l0 -1.56 l2.08 0 l0 -2.66 l1.8 0 z"></path>
  </g>
</svg>